<svg width="92" height="81" viewBox="0 0 92 81" fill="none" xmlns="http://www.w3.org/2000/svg">
<path d="M89.5081 43.6577H63.2556L54.5048 56.6242H37.0032L28.2524 43.6577H2" stroke="#65B4CE" stroke-width="4" stroke-linecap="round" stroke-linejoin="round"/>
<path d="M17.0951 13.8779L2 43.6577V69.5908C2 71.8834 2.92196 74.0821 4.56305 75.7033C6.20415 77.3244 8.42995 78.2351 10.7508 78.2351H80.7573C83.0781 78.2351 85.3039 77.3244 86.945 75.7033C88.5861 74.0821 89.5081 71.8834 89.5081 69.5908V43.6577L74.4129 13.8779C73.6885 12.4377 72.5716 11.2257 71.1881 10.3782C69.8045 9.53064 68.209 9.08118 66.581 9.08032H24.9271C23.2991 9.08118 21.7036 9.53064 20.32 10.3782C18.9364 11.2257 17.8196 12.4377 17.0951 13.8779V13.8779Z" stroke="#65B4CE" stroke-width="4" stroke-linecap="round" stroke-linejoin="round"/>
<circle cx="46" cy="20" r="18" fill="#128197" stroke="#ABE9FE" stroke-width="4"/>
<line x1="33.5052" y1="33.6713" x2="57.5052" y2="6.67127" stroke="#ABE9FE" stroke-width="4"/>
</svg>
